<svg width="40" height="53" viewBox="0 0 40 53" fill="none" xmlns="http://www.w3.org/2000/svg">
<path d="M20 0C28.275 0 35 6.65 35 14.875C35 26.025 20 42.5 20 42.5C20 42.5 5 26.025 5 14.875C5 6.65 11.725 0 20 0ZM20 10C18.6739 10 17.4021 10.5268 16.4645 11.4645C15.5268 12.4021 15 13.6739 15 15C15 16.3261 15.5268 17.5979 16.4645 18.5355C17.4021 19.4732 18.6739 20 20 20C21.3261 20 22.5979 19.4732 23.5355 18.5355C24.4732 17.5979 25 16.3261 25 15C25 13.6739 24.4732 12.4021 23.5355 11.4645C22.5979 10.5268 21.3261 10 20 10ZM40 42.5C40 48.025 31.05 52.5 20 52.5C8.95 52.5 0 48.025 0 42.5C0 39.275 3.05 36.4 7.775 34.575L9.375 36.85C6.675 37.975 5 39.525 5 41.25C5 44.7 11.725 47.5 20 47.5C28.275 47.5 35 44.7 35 41.25C35 39.525 33.325 37.975 30.625 36.85L32.225 34.575C36.95 36.4 40 39.275 40 42.5Z" fill="black"/>
</svg>
