<svg width="200" height="53" viewBox="0 0 200 53" fill="none" xmlns="http://www.w3.org/2000/svg">
<path d="M50.5227 43V13.9091H68.0795V17.0341H54.0455V26.8636H67.1705V29.9886H54.0455V39.875H68.3068V43H50.5227ZM90.3381 21.1818C90.1676 19.7424 89.4763 18.625 88.2642 17.8295C87.0521 17.0341 85.5653 16.6364 83.804 16.6364C82.5161 16.6364 81.3892 16.8447 80.4233 17.2614C79.4669 17.678 78.7188 18.2509 78.179 18.9801C77.6487 19.7093 77.3835 20.5379 77.3835 21.4659C77.3835 22.2424 77.5682 22.91 77.9375 23.4688C78.3163 24.018 78.7992 24.4773 79.3864 24.8466C79.9735 25.2064 80.589 25.5047 81.233 25.7415C81.8769 25.9687 82.4688 26.1534 83.0085 26.2955L85.9631 27.0909C86.7206 27.2898 87.5634 27.5644 88.4915 27.9148C89.429 28.2652 90.3239 28.7434 91.1761 29.3494C92.0379 29.946 92.7481 30.7131 93.3068 31.6506C93.8655 32.5881 94.1449 33.7386 94.1449 35.1023C94.1449 36.6742 93.733 38.0947 92.9091 39.3636C92.0947 40.6326 90.9015 41.6411 89.3295 42.3892C87.767 43.1373 85.8684 43.5114 83.6335 43.5114C81.5502 43.5114 79.7462 43.1752 78.2216 42.5028C76.7064 41.8305 75.5133 40.893 74.642 39.6903C73.7803 38.4877 73.2926 37.0909 73.179 35.5H76.8153C76.91 36.5985 77.2794 37.5076 77.9233 38.2273C78.5767 38.9375 79.4006 39.4678 80.3949 39.8182C81.3987 40.1591 82.4782 40.3295 83.6335 40.3295C84.9782 40.3295 86.1856 40.1117 87.2557 39.6761C88.3258 39.2311 89.1733 38.6155 89.7983 37.8295C90.4233 37.0341 90.7358 36.1061 90.7358 35.0455C90.7358 34.0795 90.4659 33.2936 89.9261 32.6875C89.3864 32.0814 88.6761 31.589 87.7955 31.2102C86.9148 30.8314 85.9631 30.5 84.9403 30.2159L81.3608 29.1932C79.0881 28.5398 77.2888 27.607 75.9631 26.3949C74.6373 25.1828 73.9744 23.5966 73.9744 21.6364C73.9744 20.0076 74.4148 18.5871 75.2955 17.375C76.1856 16.1534 77.3788 15.2064 78.875 14.5341C80.3807 13.8523 82.0616 13.5114 83.9176 13.5114C85.7926 13.5114 87.4593 13.8475 88.9176 14.5199C90.3759 15.1828 91.5313 16.0919 92.3835 17.2472C93.2453 18.4025 93.6998 19.714 93.7472 21.1818H90.3381ZM111.982 26.892V30.017H99.255V26.892H111.982ZM138.222 23C137.909 22.0436 137.497 21.1866 136.986 20.429C136.484 19.6619 135.883 19.0085 135.182 18.4688C134.491 17.929 133.705 17.517 132.824 17.233C131.943 16.9489 130.977 16.8068 129.926 16.8068C128.203 16.8068 126.635 17.2519 125.224 18.142C123.813 19.0322 122.691 20.3438 121.858 22.0767C121.025 23.8097 120.608 25.9356 120.608 28.4545C120.608 30.9735 121.029 33.0994 121.872 34.8324C122.715 36.5653 123.856 37.8769 125.295 38.767C126.735 39.6572 128.354 40.1023 130.153 40.1023C131.82 40.1023 133.288 39.7472 134.557 39.0369C135.835 38.3172 136.83 37.304 137.54 35.9972C138.259 34.6809 138.619 33.1326 138.619 31.3523L139.699 31.5795H130.949V28.4545H142.028V31.5795C142.028 33.9754 141.517 36.0587 140.494 37.8295C139.481 39.6004 138.08 40.9735 136.29 41.9489C134.509 42.9148 132.464 43.3977 130.153 43.3977C127.578 43.3977 125.314 42.7917 123.364 41.5795C121.422 40.3674 119.907 38.6439 118.818 36.4091C117.739 34.1742 117.199 31.5227 117.199 28.4545C117.199 26.1534 117.507 24.0843 118.122 22.2472C118.747 20.4006 119.628 18.8286 120.764 17.5312C121.901 16.2339 123.245 15.2396 124.798 14.5483C126.351 13.857 128.061 13.5114 129.926 13.5114C131.46 13.5114 132.89 13.7434 134.216 14.2074C135.551 14.6619 136.74 15.3106 137.781 16.1534C138.832 16.9867 139.708 17.9858 140.409 19.1506C141.11 20.3059 141.593 21.589 141.858 23H138.222ZM148.062 43V13.9091H157.891C160.174 13.9091 162.039 14.321 163.488 15.1449C164.946 15.9593 166.026 17.0625 166.727 18.4545C167.427 19.8466 167.778 21.3996 167.778 23.1136C167.778 24.8277 167.427 26.3854 166.727 27.7869C166.035 29.1884 164.965 30.3059 163.516 31.1392C162.067 31.9631 160.211 32.375 157.948 32.375H150.903V29.25H157.835C159.397 29.25 160.652 28.9801 161.599 28.4403C162.546 27.9006 163.232 27.1714 163.658 26.2528C164.094 25.3248 164.312 24.2784 164.312 23.1136C164.312 21.9489 164.094 20.9072 163.658 19.9886C163.232 19.0701 162.541 18.3504 161.585 17.8295C160.628 17.2992 159.359 17.0341 157.778 17.0341H151.585V43H148.062ZM189.362 21.1818C189.191 19.7424 188.5 18.625 187.288 17.8295C186.076 17.0341 184.589 16.6364 182.827 16.6364C181.54 16.6364 180.413 16.8447 179.447 17.2614C178.49 17.678 177.742 18.2509 177.202 18.9801C176.672 19.7093 176.407 20.5379 176.407 21.4659C176.407 22.2424 176.592 22.91 176.961 23.4688C177.34 24.018 177.823 24.4773 178.41 24.8466C178.997 25.2064 179.612 25.5047 180.256 25.7415C180.9 25.9687 181.492 26.1534 182.032 26.2955L184.987 27.0909C185.744 27.2898 186.587 27.5644 187.515 27.9148C188.452 28.2652 189.347 28.7434 190.2 29.3494C191.061 29.946 191.772 30.7131 192.33 31.6506C192.889 32.5881 193.168 33.7386 193.168 35.1023C193.168 36.6742 192.756 38.0947 191.933 39.3636C191.118 40.6326 189.925 41.6411 188.353 42.3892C186.79 43.1373 184.892 43.5114 182.657 43.5114C180.574 43.5114 178.77 43.1752 177.245 42.5028C175.73 41.8305 174.537 40.893 173.665 39.6903C172.804 38.4877 172.316 37.0909 172.202 35.5H175.839C175.933 36.5985 176.303 37.5076 176.947 38.2273C177.6 38.9375 178.424 39.4678 179.418 39.8182C180.422 40.1591 181.502 40.3295 182.657 40.3295C184.002 40.3295 185.209 40.1117 186.279 39.6761C187.349 39.2311 188.197 38.6155 188.822 37.8295C189.447 37.0341 189.759 36.1061 189.759 35.0455C189.759 34.0795 189.489 33.2936 188.95 32.6875C188.41 32.0814 187.7 31.589 186.819 31.2102C185.938 30.8314 184.987 30.5 183.964 30.2159L180.384 29.1932C178.112 28.5398 176.312 27.607 174.987 26.3949C173.661 25.1828 172.998 23.5966 172.998 21.6364C172.998 20.0076 173.438 18.5871 174.319 17.375C175.209 16.1534 176.402 15.2064 177.898 14.5341C179.404 13.8523 181.085 13.5114 182.941 13.5114C184.816 13.5114 186.483 13.8475 187.941 14.5199C189.399 15.1828 190.555 16.0919 191.407 17.2472C192.269 18.4025 192.723 19.714 192.771 21.1818H189.362Z" fill="black"/>
<path d="M20 0C28.275 0 35 6.65 35 14.875C35 26.025 20 42.5 20 42.5C20 42.5 5 26.025 5 14.875C5 6.65 11.725 0 20 0ZM20 10C18.6739 10 17.4021 10.5268 16.4645 11.4645C15.5268 12.4021 15 13.6739 15 15C15 16.3261 15.5268 17.5979 16.4645 18.5355C17.4021 19.4732 18.6739 20 20 20C21.3261 20 22.5979 19.4732 23.5355 18.5355C24.4732 17.5979 25 16.3261 25 15C25 13.6739 24.4732 12.4021 23.5355 11.4645C22.5979 10.5268 21.3261 10 20 10ZM40 42.5C40 48.025 31.05 52.5 20 52.5C8.95 52.5 0 48.025 0 42.5C0 39.275 3.05 36.4 7.775 34.575L9.375 36.85C6.675 37.975 5 39.525 5 41.25C5 44.7 11.725 47.5 20 47.5C28.275 47.5 35 44.7 35 41.25C35 39.525 33.325 37.975 30.625 36.85L32.225 34.575C36.95 36.4 40 39.275 40 42.5Z" fill="black"/>
</svg>
